<svg xmlns="http://www.w3.org/2000/svg" width="27.09" height="25.145" viewBox="0 0 27.09 25.145">
  <g id="users-solid" transform="translate(-4.46 -6.005)">
    <path id="Path_6565" d="M12,16.14h-.87A8.67,8.67,0,0,0,4.7,18.66l-.24.28v8.28H8.54v-4.7l.55-.62.25-.29a11,11,0,0,1,4.71-2.86A6.59,6.59,0,0,1,12,16.14Z"/>
    <path id="Path_6566"  d="M31.34,18.63a8.67,8.67,0,0,0-6.43-2.52,10.47,10.47,0,0,0-1.09.06,6.59,6.59,0,0,1-2,2.45,10.91,10.91,0,0,1,5,3l.25.28.54.62v4.71h3.94V18.91Z"/>
    <path id="Path_6567"  d="M11.1,14.19h.31A6.45,6.45,0,0,1,14.52,7.9a4.09,4.09,0,1,0-3.42,6.33Z"/>
    <path id="Path_6568"  d="M24.43,13.44a6.54,6.54,0,0,1,0,.69,4.09,4.09,0,0,0,.58.05h.19A4.09,4.09,0,1,0,21.47,8a6.53,6.53,0,0,1,2.96,5.44Z"/>
    <path id="Path_6569"  d="M22.34,13.45a4.47,4.47,0,1,1-4.47-4.47A4.47,4.47,0,0,1,22.34,13.45Z"/>
    <path id="Path_6570"  d="M18.11,20.3A9.69,9.69,0,0,0,11,23l-.25.28v6.33a1.57,1.57,0,0,0,1.6,1.54H23.84a1.57,1.57,0,0,0,1.6-1.54V23.3L25.2,23A9.58,9.58,0,0,0,18.11,20.3Z"/>
  </g>
</svg>
