<svg xmlns="http://www.w3.org/2000/svg" width="30.245" height="30.245" viewBox="0 0 30.245 30.245">
  <g id="svgexport-6_57_" data-name="svgexport-6 (57)" transform="translate(0 0)">
    <path id="Path_6562" data-name="Path 6562" d="M207.923,0H196.534A3.731,3.731,0,0,0,192.8,3.733V20.817a.887.887,0,0,0,1.418.709l3.56-2.67h10.145a3.731,3.731,0,0,0,3.733-3.733V3.733A3.731,3.731,0,0,0,207.923,0Zm-5.695,14.585a.886.886,0,1,1,.886-.886A.886.886,0,0,1,202.229,14.585Zm.886-3.919v.185a.886.886,0,0,1-1.772,0V9.9a.886.886,0,0,1,.886-.886,1.487,1.487,0,1,0-1.487-1.488.886.886,0,1,1-1.772,0h0a3.259,3.259,0,1,1,4.145,3.138Zm0,0" transform="translate(-181.412)"/>
    <path id="Path_6563" data-name="Path 6563" d="M32.8,245.177a4.189,4.189,0,1,1-4.189-4.189A4.189,4.189,0,0,1,32.8,245.177Zm0,0" transform="translate(-22.983 -226.752)"/>
    <path id="Path_6564" data-name="Path 6564" d="M5.632,382.8A5.632,5.632,0,0,0,0,388.436v1.114a.886.886,0,0,0,.886.886h9.491a.886.886,0,0,0,.886-.886v-1.114A5.632,5.632,0,0,0,5.632,382.8Zm0,0" transform="translate(0 -360.192)"/>
  </g>
</svg>
