<svg id="calendar-fill" xmlns="http://www.w3.org/2000/svg" width="16.5" height="16.5" viewBox="0 0 16.5 16.5">
  <path id="Path_6514" d="M7.266,0a.516.516,0,0,1,.516.516v.516a.516.516,0,0,1-1.031,0V.516A.516.516,0,0,1,7.266,0Zm9.281,0a.516.516,0,0,1,.516.516v.516a.516.516,0,0,1-1.031,0V.516A.516.516,0,0,1,16.547,0Z" transform="translate(-3.656)" fill-rule="evenodd"/>
  <path id="Path_6515" d="M2.063,2.25A2.063,2.063,0,0,0,0,4.313V5.344H16.5V4.313A2.062,2.062,0,0,0,14.438,2.25ZM16.5,6.375H0v9.281a2.062,2.062,0,0,0,2.063,2.063H14.438A2.062,2.062,0,0,0,16.5,15.656Z" transform="translate(0 -1.219)"/>
</svg>
