<svg xmlns="http://www.w3.org/2000/svg" width="24.866" height="22.193" viewBox="0 0 24.866 22.193">
  <g id="cart" transform="translate(-2.25 -4.5)">
    <path id="Path_6518" d="M13.824,28.849A1.849,1.849,0,1,1,11.974,27,1.849,1.849,0,0,1,13.824,28.849Z" transform="translate(-1.402 -4.006)" fill="#182b4c"/>
    <path id="Path_6519" d="M29.574,28.849A1.849,1.849,0,1,1,27.724,27,1.849,1.849,0,0,1,29.574,28.849Z" transform="translate(-4.206 -4.006)" fill="#182b4c"/>
    <path id="Path_6520" d="M26.8,7.781a1.383,1.383,0,0,0-1.073-.507H8.139l-.354-2.01A.925.925,0,0,0,6.874,4.5h-3.7a.925.925,0,1,0,0,1.849H6.1L8.736,21.305a.925.925,0,0,0,.912.764h14.8a.925.925,0,0,0,0-1.849H10.424L10.1,18.371H24.064a1.391,1.391,0,0,0,1.361-1.115L27.09,8.934A1.387,1.387,0,0,0,26.8,7.782Z" fill="#182b4c"/>
  </g>
</svg>
