<svg xmlns="http://www.w3.org/2000/svg" width="32.188" height="22.51" viewBox="0 0 32.188 22.51">
    <g id="Group_3725" transform="translate(-28.5 -760.493)">
        <path id="Path_6513"
            d="M11.053,1.572a.675.675,0,0,0-.5,0L2.493,4.795,10.8,8.118l8.309-3.323Zm9.2,4.221L11.477,9.3V20l8.776-3.511V5.794ZM10.127,20V9.3L1.35,5.793v10.7ZM10.05.317a2.025,2.025,0,0,1,1.5,0L21.18,4.168a.675.675,0,0,1,.424.627v11.7a1.35,1.35,0,0,1-.849,1.253l-9.7,3.88a.675.675,0,0,1-.5,0l-9.7-3.88A1.35,1.35,0,0,1,0,16.491V4.795a.675.675,0,0,1,.424-.627Z"
            transform="translate(29 760.827)" fill="rgba(40,79,90,0.28)" stroke="#1d3c45"
            stroke-width="1" fill-rule="evenodd" />
        <path id="add"
            d="M9.094,3a6.094,6.094,0,1,0,6.094,6.094A6.094,6.094,0,0,0,9.094,3Zm3.047,6.7H9.7v2.438H8.484V9.7H6.047V8.484H8.484V6.047H9.7V8.484h2.438Z"
            transform="translate(45 763)" fill="rgba(40,79,90,0.28)" stroke="#1d3c45"
            stroke-width="1" />
    </g>
</svg>
