<svg xmlns="http://www.w3.org/2000/svg" width="21.184" height="23.625" viewBox="0 0 21.184 23.625">
  <path id="notification-filled" d="M24.311,16.848l-2.2-2.2V10.9A8.2,8.2,0,0,0,14.78,2.754V1.125H13.15V2.754A8.269,8.269,0,0,0,5.818,10.9v3.747l-2.2,2.2a.742.742,0,0,0-.244.57v2.444a.765.765,0,0,0,.815.815h5.7a4.073,4.073,0,1,0,8.147,0h5.7a.765.765,0,0,0,.815-.815V17.418A.742.742,0,0,0,24.311,16.848ZM13.965,23.121a2.444,2.444,0,0,1-2.444-2.444h4.888a2.444,2.444,0,0,1-2.444,2.444Z" transform="translate(-3.373 -1.125)" fill="#182b4c"/>
</svg>
