<svg xmlns="http://www.w3.org/2000/svg" width="26" height="23.833" viewBox="0 0 26 23.833">
  <g id="svgexport-6_55_" transform="translate(-0.867 -4.084)">
    <path id="Path_6539" d="M22.533,11.576V6.246l2.6-2.6v8.921H26V2.6h0a.422.422,0,0,0-.429-.433H4.767a.431.431,0,0,0-.306.127L.994,5.76a.433.433,0,0,0-.127.307V22.533a.433.433,0,0,0,.433.433H22.1a.433.433,0,0,0,.433-.433V17.351a4.976,4.976,0,0,1-4.117,7.783.433.433,0,0,0,0,.867h.867a7.577,7.577,0,0,0,3.25-14.424Zm-.613-5.942H14.046l2.6-2.6h7.875Zm-9.227.127a.431.431,0,0,0-.127.306V9.1H10.833V6.246l3.213-3.213h1.375ZM4.946,3.033h7.875l-2.6,2.6H2.346ZM1.733,22.1V6.5H9.967V9.533a.433.433,0,0,0,.433.433H13a.433.433,0,0,0,.433-.433V6.5h8.233v4.723a7.534,7.534,0,0,0-2.383-.39h-.65V8.667a.433.433,0,0,0-.685-.353l-6.067,4.333a.433.433,0,0,0,0,.705l6.067,4.333a.433.433,0,0,0,.685-.352V15.171a4.962,4.962,0,0,1,3.033,1.2V22.1Zm20.821,2.182A5.847,5.847,0,0,0,18.417,14.3H18.2a.433.433,0,0,0-.433.433v1.758L12.879,13l4.888-3.491v1.758a.433.433,0,0,0,.433.433h1.083a6.716,6.716,0,0,1,3.271,12.582Z" transform="translate(0 1.917)" fill="#182b4c"/>
    <path id="Path_6540" d="M2.6,20.367H7.8v.867H2.6Z"/>
    <path id="Path_6541" d="M2.6,18.633H7.8V19.5H2.6Z"/>
  </g>
</svg>
