<svg xmlns="http://www.w3.org/2000/svg" width="28" height="28" viewBox="0 0 28 28">
  <path id="XMLID_248_" d="M24.6,23.184a6.971,6.971,0,0,0-2.6-10.5V3a1,1,0,0,0-1-1H3A1,1,0,0,0,2,3V21a1,1,0,0,0,1,1h9.685a6.971,6.971,0,0,0,10.5,2.6l5.109,5.109a1,1,0,0,0,1.414-1.414ZM11,4h2V6.382l-.553-.276a1,1,0,0,0-.9,0L11,6.382Zm1.073,16H4V4H9V8a1,1,0,0,0,1.448.895L12,8.118l1.553.776A1,1,0,0,0,15,8V4h5v8.074A7,7,0,0,0,12.073,20ZM19,24a5,5,0,1,1,5-5A5.043,5.043,0,0,1,19,24Z" transform="translate(-2 -2)" fill="#182b4c"/>
</svg>
