<svg xmlns="http://www.w3.org/2000/svg" width="18.197" height="21.23" viewBox="0 0 18.197 21.23">
  <g id="package" transform="translate(-4.5 -2.25)">
    <path id="Path_6544" data-name="Path 6544" d="M21.181,27.881H6.016A1.516,1.516,0,0,1,4.5,26.365v-9.1A1.516,1.516,0,0,1,6.016,15.75H8.291v1.516H6.016v9.1H21.181v-9.1H18.906V15.75h2.275A1.516,1.516,0,0,1,22.7,17.266v9.1A1.516,1.516,0,0,1,21.181,27.881Z" transform="translate(0 -4.401)"/>
    <path id="Path_6545" data-name="Path 6545" d="M14.625,22.5h4.549v1.516H14.625Z" transform="translate(-3.301 -6.602)"/>
    <path id="Path_6546" data-name="Path 6546" d="M19.28,7.247,16.557,9.961V2.25H15.041V9.961L12.319,7.247,11.25,8.316,15.8,12.865l4.549-4.549Z" transform="translate(29.398 15.115) rotate(180)"/>
  </g>
</svg>
